# MagicaVoxel @ Ephtracy

# group
o 

# material
mtllib Gun-11.mtl
usemtl palette

# normals
vn -1 0 0
vn 1 0 0
vn 0 0 1
vn 0 0 -1
vn 0 -1 0
vn 0 1 0

# texcoords
vt 0.908203 0.5
vt 0.947266 0.5
vt 0.951172 0.5

# verts
v -2.5 0 0.2
v -2.5 0 -0.2
v -2.5 1.6 0.2
v -2.5 1.6 -0.2
v -2.1 1.6 0.2
v -2.1 1.6 -0.2
v -2.1 2.4 0.2
v -2.1 2.4 -0.2
v -1.3 0 0.2
v -1.3 0 -0.2
v -1.3 0.4 0.2
v -1.3 0.4 -0.2
v -0.0999999 0.4 0.2
v -0.0999999 0.4 -0.2
v -0.0999999 1.2 0.2
v -0.0999999 1.2 -0.2
v 2.6 1.2 0.2
v 2.6 1.2 -0.2
v 2.6 2.4 0.2
v 2.6 2.4 -0.2
v -2.5 0 0.2
v -2.5 1.6 0.2
v -2.3 0.1 0.2
v -2.3 1.5 0.2
v -2.1 1.6 0.2
v -2.1 2.4 0.2
v -1.9 1.5 0.2
v -1.9 2.3 0.2
v -1.5 0.1 0.2
v -1.5 0.6 0.2
v -1.4 0.6 0.2
v -1.4 2.3 0.2
v -1.3 0 0.2
v -1.3 0.4 0.2
v -1.3 0.6 0.2
v -1.3 1.7 0.2
v -1.3 1.8 0.2
v -1.3 2.3 0.2
v -1.1 1.5 0.2
v -1.1 1.7 0.2
v -1 1.6 0.2
v -1 1.8 0.2
v -0.3 0.6 0.2
v -0.3 1.5 0.2
v -0.2 1.3 0.2
v -0.2 1.5 0.2
v -0.0999999 0.4 0.2
v -0.0999999 1.2 0.2
v 1.1 1.6 0.2
v 1.1 1.8 0.2
v 1.2 1.5 0.2
v 1.2 1.7 0.2
v 2.1 1.8 0.2
v 2.1 2.3 0.2
v 2.2 1.7 0.2
v 2.2 2.3 0.2
v 2.3 1.4 0.2
v 2.3 2.2 0.2
v 2.4 1.5 0.2
v 2.4 1.7 0.2
v 2.4 1.8 0.2
v 2.4 2.1 0.2
v 2.5 1.3 0.2
v 2.5 1.4 0.2
v 2.5 1.5 0.2
v 2.5 1.7 0.2
v 2.5 1.8 0.2
v 2.5 2.1 0.2
v 2.5 2.2 0.2
v 2.5 2.3 0.2
v 2.6 1.2 0.2
v 2.6 2.4 0.2
v -2.5 0 -0.2
v -2.5 1.6 -0.2
v -2.3 0.1 -0.2
v -2.3 1.5 -0.2
v -2.1 1.6 -0.2
v -2.1 2.4 -0.2
v -2 1.5 -0.2
v -2 2.3 -0.2
v -1.5 0.1 -0.2
v -1.5 0.6 -0.2
v -1.4 0.6 -0.2
v -1.4 2.3 -0.2
v -1.3 0 -0.2
v -1.3 0.4 -0.2
v -1.3 0.6 -0.2
v -1.3 1.7 -0.2
v -1.3 1.8 -0.2
v -1.3 2.3 -0.2
v -1.1 1.5 -0.2
v -1.1 1.7 -0.2
v -1 1.6 -0.2
v -1 1.8 -0.2
v -0.3 0.6 -0.2
v -0.3 1.5 -0.2
v -0.2 1.3 -0.2
v -0.2 1.5 -0.2
v -0.0999999 0.4 -0.2
v -0.0999999 1.2 -0.2
v 1.1 1.6 -0.2
v 1.1 1.8 -0.2
v 1.2 1.5 -0.2
v 1.2 1.7 -0.2
v 2.1 1.8 -0.2
v 2.1 2.3 -0.2
v 2.2 1.7 -0.2
v 2.2 2.3 -0.2
v 2.3 1.4 -0.2
v 2.3 2.2 -0.2
v 2.4 1.5 -0.2
v 2.4 1.7 -0.2
v 2.4 1.8 -0.2
v 2.4 2.1 -0.2
v 2.5 1.3 -0.2
v 2.5 1.4 -0.2
v 2.5 1.5 -0.2
v 2.5 1.7 -0.2
v 2.5 1.8 -0.2
v 2.5 2.1 -0.2
v 2.5 2.2 -0.2
v 2.5 2.3 -0.2
v 2.6 1.2 -0.2
v 2.6 2.4 -0.2
v -2.5 0 0.2
v -1.3 0 0.2
v -2.5 0 -0.2
v -1.3 0 -0.2
v -1.3 0.4 0.2
v -0.0999999 0.4 0.2
v -1.3 0.4 -0.2
v -0.0999999 0.4 -0.2
v -0.0999999 1.2 0.2
v 2.6 1.2 0.2
v -0.0999999 1.2 -0.2
v 2.6 1.2 -0.2
v -2.5 1.6 0.2
v -2.1 1.6 0.2
v -2.5 1.6 -0.2
v -2.1 1.6 -0.2
v -2.1 2.4 0.2
v 2.6 2.4 0.2
v -1.9 2.4 0.1
v -1.4 2.4 0.1
v -1.3 2.4 0.1
v 2.1 2.4 0.1
v 2.2 2.4 0.1
v 2.5 2.4 0.1
v -1.9 2.4 -0.1
v -1.4 2.4 -0.1
v -1.3 2.4 -0.1
v 2.1 2.4 -0.1
v 2.2 2.4 -0.1
v 2.5 2.4 -0.1
v -2.1 2.4 -0.2
v 2.6 2.4 -0.2

# faces
f 3/3/1 2/3/1 1/3/1
f 4/3/1 2/3/1 3/3/1
f 7/3/1 6/3/1 5/3/1
f 8/3/1 6/3/1 7/3/1
f 9/3/2 10/3/2 11/3/2
f 11/3/2 10/3/2 12/3/2
f 13/3/2 14/3/2 15/3/2
f 15/3/2 14/3/2 16/3/2
f 17/3/2 18/3/2 19/3/2
f 19/3/2 18/3/2 20/3/2
f 23/3/3 22/3/3 21/3/3
f 24/3/3 22/3/3 23/3/3
f 25/3/3 22/3/3 24/3/3
f 27/1/3 24/1/3 23/1/3
f 27/3/3 26/3/3 25/3/3
f 27/3/3 25/3/3 24/3/3
f 28/3/3 26/3/3 27/3/3
f 29/3/3 23/3/3 21/3/3
f 29/1/3 27/1/3 23/1/3
f 29/1/3 28/1/3 27/1/3
f 30/1/3 28/1/3 29/1/3
f 31/3/3 30/3/3 29/3/3
f 31/1/3 28/1/3 30/1/3
f 32/3/3 26/3/3 28/3/3
f 32/1/3 28/1/3 31/1/3
f 33/3/3 31/3/3 29/3/3
f 33/3/3 29/3/3 21/3/3
f 33/3/3 32/3/3 31/3/3
f 34/3/3 32/3/3 33/3/3
f 35/3/3 32/3/3 34/3/3
f 36/3/3 32/3/3 35/3/3
f 37/3/3 32/3/3 36/3/3
f 38/3/3 26/3/3 32/3/3
f 38/3/3 32/3/3 37/3/3
f 39/1/3 36/1/3 35/1/3
f 40/3/3 37/3/3 36/3/3
f 40/1/3 36/1/3 39/1/3
f 41/3/3 40/3/3 39/3/3
f 42/2/3 38/2/3 37/2/3
f 42/3/3 40/3/3 41/3/3
f 42/3/3 37/3/3 40/3/3
f 43/1/3 39/1/3 35/1/3
f 43/3/3 35/3/3 34/3/3
f 44/3/3 41/3/3 39/3/3
f 44/1/3 39/1/3 43/1/3
f 45/3/3 44/3/3 43/3/3
f 46/3/3 41/3/3 44/3/3
f 46/3/3 44/3/3 45/3/3
f 47/3/3 43/3/3 34/3/3
f 47/3/3 45/3/3 43/3/3
f 48/3/3 45/3/3 47/3/3
f 49/2/3 42/2/3 41/2/3
f 49/3/3 41/3/3 46/3/3
f 50/2/3 38/2/3 42/2/3
f 50/2/3 42/2/3 49/2/3
f 51/3/3 49/3/3 46/3/3
f 51/1/3 46/1/3 45/1/3
f 51/3/3 50/3/3 49/3/3
f 52/3/3 50/3/3 51/3/3
f 53/2/3 38/2/3 50/2/3
f 53/3/3 50/3/3 52/3/3
f 54/3/3 26/3/3 38/3/3
f 54/2/3 38/2/3 53/2/3
f 55/1/3 52/1/3 51/1/3
f 55/3/3 53/3/3 52/3/3
f 55/3/3 54/3/3 53/3/3
f 56/3/3 26/3/3 54/3/3
f 56/3/3 54/3/3 55/3/3
f 57/1/3 55/1/3 51/1/3
f 57/1/3 51/1/3 45/1/3
f 57/1/3 56/1/3 55/1/3
f 58/1/3 56/1/3 57/1/3
f 59/3/3 58/3/3 57/3/3
f 60/3/3 58/3/3 59/3/3
f 61/3/3 58/3/3 60/3/3
f 62/3/3 58/3/3 61/3/3
f 63/3/3 45/3/3 48/3/3
f 63/1/3 57/1/3 45/1/3
f 64/3/3 59/3/3 57/3/3
f 64/1/3 57/1/3 63/1/3
f 65/1/3 60/1/3 59/1/3
f 65/3/3 59/3/3 64/3/3
f 66/3/3 61/3/3 60/3/3
f 66/1/3 60/1/3 65/1/3
f 67/1/3 62/1/3 61/1/3
f 67/3/3 61/3/3 66/3/3
f 68/3/3 58/3/3 62/3/3
f 68/1/3 62/1/3 67/1/3
f 69/1/3 56/1/3 58/1/3
f 69/3/3 58/3/3 68/3/3
f 70/3/3 26/3/3 56/3/3
f 70/1/3 56/1/3 69/1/3
f 71/3/3 69/3/3 68/3/3
f 71/3/3 67/3/3 66/3/3
f 71/3/3 70/3/3 69/3/3
f 71/3/3 65/3/3 64/3/3
f 71/3/3 64/3/3 63/3/3
f 71/3/3 63/3/3 48/3/3
f 71/3/3 68/3/3 67/3/3
f 71/3/3 66/3/3 65/3/3
f 72/3/3 26/3/3 70/3/3
f 72/3/3 70/3/3 71/3/3
f 73/3/4 74/3/4 75/3/4
f 75/3/4 74/3/4 76/3/4
f 76/3/4 74/3/4 77/3/4
f 75/1/4 76/1/4 79/1/4
f 77/3/4 78/3/4 79/3/4
f 76/3/4 77/3/4 79/3/4
f 79/3/4 78/3/4 80/3/4
f 73/3/4 75/3/4 81/3/4
f 75/1/4 79/1/4 81/1/4
f 79/1/4 80/1/4 81/1/4
f 81/1/4 80/1/4 82/1/4
f 81/3/4 82/3/4 83/3/4
f 82/1/4 80/1/4 83/1/4
f 80/3/4 78/3/4 84/3/4
f 83/1/4 80/1/4 84/1/4
f 81/3/4 83/3/4 85/3/4
f 73/3/4 81/3/4 85/3/4
f 83/3/4 84/3/4 85/3/4
f 85/3/4 84/3/4 86/3/4
f 86/3/4 84/3/4 87/3/4
f 87/3/4 84/3/4 88/3/4
f 88/3/4 84/3/4 89/3/4
f 84/3/4 78/3/4 90/3/4
f 89/3/4 84/3/4 90/3/4
f 87/1/4 88/1/4 91/1/4
f 88/3/4 89/3/4 92/3/4
f 91/1/4 88/1/4 92/1/4
f 91/3/4 92/3/4 93/3/4
f 89/2/4 90/2/4 94/2/4
f 93/3/4 92/3/4 94/3/4
f 92/3/4 89/3/4 94/3/4
f 87/1/4 91/1/4 95/1/4
f 86/3/4 87/3/4 95/3/4
f 91/3/4 93/3/4 96/3/4
f 95/1/4 91/1/4 96/1/4
f 95/3/4 96/3/4 97/3/4
f 96/3/4 93/3/4 98/3/4
f 97/3/4 96/3/4 98/3/4
f 86/3/4 95/3/4 99/3/4
f 95/3/4 97/3/4 99/3/4
f 99/3/4 97/3/4 100/3/4
f 93/2/4 94/2/4 101/2/4
f 98/3/4 93/3/4 101/3/4
f 94/2/4 90/2/4 102/2/4
f 101/2/4 94/2/4 102/2/4
f 98/3/4 101/3/4 103/3/4
f 97/1/4 98/1/4 103/1/4
f 101/3/4 102/3/4 103/3/4
f 103/3/4 102/3/4 104/3/4
f 102/2/4 90/2/4 105/2/4
f 104/3/4 102/3/4 105/3/4
f 90/3/4 78/3/4 106/3/4
f 105/2/4 90/2/4 106/2/4
f 103/1/4 104/1/4 107/1/4
f 104/3/4 105/3/4 107/3/4
f 105/3/4 106/3/4 107/3/4
f 106/3/4 78/3/4 108/3/4
f 107/3/4 106/3/4 108/3/4
f 103/1/4 107/1/4 109/1/4
f 97/1/4 103/1/4 109/1/4
f 107/1/4 108/1/4 109/1/4
f 109/1/4 108/1/4 110/1/4
f 109/3/4 110/3/4 111/3/4
f 111/3/4 110/3/4 112/3/4
f 112/3/4 110/3/4 113/3/4
f 113/3/4 110/3/4 114/3/4
f 100/3/4 97/3/4 115/3/4
f 97/1/4 109/1/4 115/1/4
f 109/3/4 111/3/4 116/3/4
f 115/1/4 109/1/4 116/1/4
f 111/1/4 112/1/4 117/1/4
f 116/3/4 111/3/4 117/3/4
f 112/3/4 113/3/4 118/3/4
f 117/1/4 112/1/4 118/1/4
f 113/1/4 114/1/4 119/1/4
f 118/3/4 113/3/4 119/3/4
f 114/3/4 110/3/4 120/3/4
f 119/1/4 114/1/4 120/1/4
f 110/1/4 108/1/4 121/1/4
f 120/3/4 110/3/4 121/3/4
f 108/3/4 78/3/4 122/3/4
f 121/1/4 108/1/4 122/1/4
f 120/3/4 121/3/4 123/3/4
f 118/3/4 119/3/4 123/3/4
f 121/3/4 122/3/4 123/3/4
f 116/3/4 117/3/4 123/3/4
f 115/3/4 116/3/4 123/3/4
f 100/3/4 115/3/4 123/3/4
f 119/3/4 120/3/4 123/3/4
f 117/3/4 118/3/4 123/3/4
f 122/3/4 78/3/4 124/3/4
f 123/3/4 122/3/4 124/3/4
f 127/3/5 126/3/5 125/3/5
f 128/3/5 126/3/5 127/3/5
f 131/3/5 130/3/5 129/3/5
f 132/3/5 130/3/5 131/3/5
f 135/3/5 134/3/5 133/3/5
f 136/3/5 134/3/5 135/3/5
f 137/3/6 138/3/6 139/3/6
f 139/3/6 138/3/6 140/3/6
f 141/3/6 142/3/6 143/3/6
f 143/3/6 142/3/6 144/3/6
f 144/3/6 142/3/6 145/3/6
f 145/3/6 142/3/6 146/3/6
f 146/3/6 142/3/6 147/3/6
f 147/3/6 142/3/6 148/3/6
f 141/3/6 143/3/6 149/3/6
f 143/1/6 144/1/6 149/1/6
f 144/3/6 145/3/6 150/3/6
f 149/1/6 144/1/6 150/1/6
f 145/2/6 146/2/6 151/2/6
f 150/3/6 145/3/6 151/3/6
f 146/3/6 147/3/6 152/3/6
f 151/2/6 146/2/6 152/2/6
f 147/1/6 148/1/6 153/1/6
f 152/3/6 147/3/6 153/3/6
f 148/3/6 142/3/6 154/3/6
f 153/1/6 148/1/6 154/1/6
f 152/3/6 153/3/6 155/3/6
f 151/3/6 152/3/6 155/3/6
f 153/3/6 154/3/6 155/3/6
f 150/3/6 151/3/6 155/3/6
f 149/3/6 150/3/6 155/3/6
f 141/3/6 149/3/6 155/3/6
f 154/3/6 142/3/6 156/3/6
f 155/3/6 154/3/6 156/3/6
