# MagicaVoxel @ Ephtracy

# group
o 

# material
mtllib Gun-1.mtl
usemtl palette

# normals
vn -1 0 0
vn 1 0 0
vn 0 0 1
vn 0 0 -1
vn 0 -1 0
vn 0 1 0

# texcoords
vt 0.845703 0.5
vt 0.849609 0.5
vt 0.927734 0.5
vt 0.958984 0.5
vt 0.974609 0.5
vt 0.978516 0.5
vt 0.990234 0.5
vt 0.994141 0.5

# verts
v -0.8 0 0.2
v -0.8 0 -0.2
v -0.8 1.2 0.2
v -0.8 1.2 -0.2
v 0.8 0 0.2
v 0.8 0 -0.2
v 0.8 1.1 0.2
v 0.8 1.1 -0.2
v 0.8 1.2 0.2
v 0.8 1.2 -0.2
v -0.8 0 0.2
v -0.8 1.2 0.2
v -0.7 0 0.2
v -0.7 0.1 0.2
v -0.7 1.1 0.2
v -0.4 0.6 0.2
v -0.4 1.1 0.2
v -0.3 0.1 0.2
v -0.3 0.6 0.2
v -0.3 1.1 0.2
v -0.2 0.1 0.2
v -0.2 0.6 0.2
v 0.1 0.6 0.2
v 0.1 1.1 0.2
v 0.2 0.1 0.2
v 0.2 0.6 0.2
v 0.2 1.1 0.2
v 0.3 0.1 0.2
v 0.3 0.6 0.2
v 0.7 0.1 0.2
v 0.7 1.1 0.2
v 0.8 0 0.2
v 0.8 1.1 0.2
v 0.8 1.2 0.2
v -0.8 0 -0.2
v -0.8 1.2 -0.2
v -0.7 0 -0.2
v -0.7 0.1 -0.2
v -0.7 1.1 -0.2
v -0.4 0.6 -0.2
v -0.4 1.1 -0.2
v -0.3 0.1 -0.2
v -0.3 0.6 -0.2
v -0.3 1.1 -0.2
v -0.2 0.1 -0.2
v -0.2 0.6 -0.2
v 0.1 0.6 -0.2
v 0.1 1.1 -0.2
v 0.2 0.1 -0.2
v 0.2 0.6 -0.2
v 0.2 1.1 -0.2
v 0.3 0.1 -0.2
v 0.3 0.6 -0.2
v 0.7 0.1 -0.2
v 0.7 1.1 -0.2
v 0.8 0 -0.2
v 0.8 1.1 -0.2
v 0.8 1.2 -0.2
v -0.8 0 0.2
v -0.7 0 0.2
v 0.8 0 0.2
v -0.8 0 -0.2
v -0.7 0 -0.2
v 0.8 0 -0.2
v -0.8 1.2 0.2
v 0.8 1.2 0.2
v -0.7 1.2 0.1
v -0.5 1.2 0.1
v -0.4 1.2 0.1
v 0 1.2 0.1
v 0.2 1.2 0.1
v 0.4 1.2 0.1
v 0.7 1.2 0.1
v -0.2 1.2 0
v 0 1.2 0
v -0.7 1.2 -0.1
v -0.5 1.2 -0.1
v -0.4 1.2 -0.1
v -0.2 1.2 -0.1
v 0.2 1.2 -0.1
v 0.4 1.2 -0.1
v 0.7 1.2 -0.1
v -0.8 1.2 -0.2
v 0.8 1.2 -0.2

# faces
f 3/4/1 2/4/1 1/4/1
f 4/4/1 2/4/1 3/4/1
f 5/3/2 6/3/2 7/3/2
f 7/3/2 6/3/2 8/3/2
f 7/4/2 8/4/2 9/4/2
f 9/4/2 8/4/2 10/4/2
f 13/4/3 12/4/3 11/4/3
f 14/4/3 12/4/3 13/4/3
f 15/4/3 12/4/3 14/4/3
f 16/5/3 15/5/3 14/5/3
f 17/4/3 12/4/3 15/4/3
f 17/5/3 15/5/3 16/5/3
f 18/3/3 14/3/3 13/3/3
f 18/5/3 16/5/3 14/5/3
f 19/3/3 17/3/3 16/3/3
f 19/5/3 16/5/3 18/5/3
f 20/4/3 12/4/3 17/4/3
f 20/3/3 17/3/3 19/3/3
f 21/3/3 19/3/3 18/3/3
f 21/3/3 18/3/3 13/3/3
f 22/5/3 20/5/3 19/5/3
f 22/3/3 19/3/3 21/3/3
f 23/5/3 22/5/3 21/5/3
f 23/5/3 20/5/3 22/5/3
f 24/4/3 12/4/3 20/4/3
f 24/5/3 20/5/3 23/5/3
f 25/5/3 23/5/3 21/5/3
f 25/3/3 21/3/3 13/3/3
f 26/3/3 24/3/3 23/3/3
f 26/5/3 23/5/3 25/5/3
f 27/4/3 12/4/3 24/4/3
f 27/3/3 24/3/3 26/3/3
f 28/3/3 26/3/3 25/3/3
f 28/3/3 25/3/3 13/3/3
f 29/5/3 27/5/3 26/5/3
f 29/3/3 26/3/3 28/3/3
f 30/3/3 28/3/3 13/3/3
f 30/5/3 29/5/3 28/5/3
f 31/4/3 12/4/3 27/4/3
f 31/5/3 29/5/3 30/5/3
f 31/5/3 27/5/3 29/5/3
f 32/3/3 30/3/3 13/3/3
f 32/3/3 31/3/3 30/3/3
f 33/4/3 12/4/3 31/4/3
f 33/3/3 31/3/3 32/3/3
f 34/4/3 12/4/3 33/4/3
f 35/4/4 36/4/4 37/4/4
f 37/4/4 36/4/4 38/4/4
f 38/4/4 36/4/4 39/4/4
f 38/5/4 39/5/4 40/5/4
f 39/4/4 36/4/4 41/4/4
f 40/5/4 39/5/4 41/5/4
f 37/3/4 38/3/4 42/3/4
f 38/5/4 40/5/4 42/5/4
f 40/3/4 41/3/4 43/3/4
f 42/5/4 40/5/4 43/5/4
f 41/4/4 36/4/4 44/4/4
f 43/3/4 41/3/4 44/3/4
f 42/3/4 43/3/4 45/3/4
f 37/3/4 42/3/4 45/3/4
f 43/5/4 44/5/4 46/5/4
f 45/3/4 43/3/4 46/3/4
f 45/5/4 46/5/4 47/5/4
f 46/5/4 44/5/4 47/5/4
f 44/4/4 36/4/4 48/4/4
f 47/5/4 44/5/4 48/5/4
f 45/5/4 47/5/4 49/5/4
f 37/3/4 45/3/4 49/3/4
f 47/3/4 48/3/4 50/3/4
f 49/5/4 47/5/4 50/5/4
f 48/4/4 36/4/4 51/4/4
f 50/3/4 48/3/4 51/3/4
f 49/3/4 50/3/4 52/3/4
f 37/3/4 49/3/4 52/3/4
f 50/5/4 51/5/4 53/5/4
f 52/3/4 50/3/4 53/3/4
f 37/3/4 52/3/4 54/3/4
f 52/5/4 53/5/4 54/5/4
f 51/4/4 36/4/4 55/4/4
f 54/5/4 53/5/4 55/5/4
f 53/5/4 51/5/4 55/5/4
f 37/3/4 54/3/4 56/3/4
f 54/3/4 55/3/4 56/3/4
f 55/4/4 36/4/4 57/4/4
f 56/3/4 55/3/4 57/3/4
f 57/4/4 36/4/4 58/4/4
f 62/4/5 60/4/5 59/4/5
f 63/3/5 61/3/5 60/3/5
f 63/4/5 60/4/5 62/4/5
f 64/3/5 61/3/5 63/3/5
f 65/4/6 66/4/6 67/4/6
f 67/4/6 66/4/6 68/4/6
f 68/4/6 66/4/6 69/4/6
f 69/4/6 66/4/6 70/4/6
f 70/4/6 66/4/6 71/4/6
f 71/4/6 66/4/6 72/4/6
f 72/4/6 66/4/6 73/4/6
f 69/2/6 70/2/6 74/2/6
f 70/1/6 71/1/6 75/1/6
f 74/2/6 70/2/6 75/2/6
f 65/4/6 67/4/6 76/4/6
f 67/7/6 68/7/6 76/7/6
f 68/1/6 69/1/6 77/1/6
f 76/7/6 68/7/6 77/7/6
f 69/2/6 74/2/6 78/2/6
f 77/1/6 69/1/6 78/1/6
f 74/1/6 75/1/6 79/1/6
f 78/2/6 74/2/6 79/2/6
f 75/1/6 71/1/6 80/1/6
f 79/1/6 75/1/6 80/1/6
f 71/6/6 72/6/6 80/6/6
f 72/8/6 73/8/6 81/8/6
f 80/6/6 72/6/6 81/6/6
f 73/4/6 66/4/6 82/4/6
f 81/8/6 73/8/6 82/8/6
f 78/4/6 79/4/6 83/4/6
f 77/4/6 78/4/6 83/4/6
f 81/4/6 82/4/6 83/4/6
f 79/4/6 80/4/6 83/4/6
f 76/4/6 77/4/6 83/4/6
f 80/4/6 81/4/6 83/4/6
f 65/4/6 76/4/6 83/4/6
f 82/4/6 66/4/6 84/4/6
f 83/4/6 82/4/6 84/4/6
